<svg xmlns="http://www.w3.org/2000/svg" height="800" width="1200" viewBox="-28.06353 -11.68235 243.21726 70.0941"><path d="M5.96 37.1988l3.081-8.366 2.939 8.366zm9.014 8.431h2.825l-7.332-20.139H7.673L0 45.6298h2.852l2.253-6.172h7.673zm8.967-6.955c-2.618-.566-5.322-1.184-5.322-4.342 0-2.773 2.345-4.521 5.887-4.521 2.291 0 4.479.853 5.571 2.938l-2.382.994c-.191-.557-1.424-1.959-3.481-1.959-2.016 0-3.025 1.193-3.025 2.226 0 1.45 1.917 2.054 3.552 2.383 3.385.681 6.328 1.547 6.328 4.738 0 2.48-2.203 4.81-6.411 4.81-3.098 0-5.299-1.036-6.358-3.201l2.717-.474c.682 1.186 1.915 1.7 3.752 1.7 2.278 0 3.61-.869 3.61-2.514.001-1.74-2.185-2.291-4.438-2.778zm12.77-8.399h2.782v2.141h-2.782v8.712c0 1.807 0 2.582 1.099 2.582.485 0 1.166-.195 1.683-.355v2.12c-.453.064-1.522.258-2.493.258-2.975 0-2.975-1.446-2.943-3.442v-9.875H31.63v-2.141h2.427v-3.658l2.654-1.104zm7.67.039v2.742c1.455-2.893 4.206-2.958 5.241-2.99v2.653c-2.523.017-3.76.534-4.593 1.891-.684 1.108-.648 2.665-.648 3.98v7.039h-2.569v-15.315zm23.548 12.899h11.684v2.416H64.818v-2.616l11.454-15.037H64.827v-2.483h14.5v2.512zm30.36-12.793v2.225c1.43-2.5 3.866-2.727 4.775-2.727 1.949 0 4.284.975 5.029 3.502.261.904.261 1.841.261 3.134v9.075h-2.562v-8.655c0-1.552 0-2.003-.163-2.521-.454-1.453-1.883-2.099-3.28-2.099-1.136 0-2.111.355-2.924 1.162-1.137 1.131-1.137 2.292-1.137 3.426v8.687h-2.57v-15.209zm39.618 12.498c-.959 1.506-2.701 3.022-5.837 3.022-5.412 0-7.456-4.171-7.456-7.918 0-4.329 2.355-8.252 7.23-8.252 1.912 0 4.59.576 6.072 3.045l-2.408 1.005c-.455-1.003-1.435-2.162-3.567-2.162-4.224 0-4.471 4.813-4.471 6.171 0 5.046 2.899 6.137 4.631 6.137 1.983 0 2.996-.951 3.531-1.999zm-54.602-6.514h8.121c-.227-4.006-2.536-4.683-4.076-4.683-2.198.001-3.755 1.614-4.045 4.683zm10.235 6.316c-.876 1.491-2.567 3.202-5.901 3.202-4.52 0-7.12-3.072-7.12-8.222 0-5.753 3.795-7.952 7.025-7.952 2.808 0 5.5 1.552 6.405 5.396.292 1.293.292 2.459.292 3.106h-11c-.064 2.558 1.008 5.795 4.625 5.732 1.476-.025 2.515-.695 3.178-1.745zm18.978-6.316h8.122c-.226-4.006-2.535-4.683-4.076-4.683-2.196.001-3.754 1.614-4.046 4.683zm10.237 6.316c-.876 1.491-2.566 3.202-5.9 3.202-4.52 0-7.121-3.072-7.121-8.222 0-5.753 3.795-7.952 7.024-7.952 2.809 0 5.499 1.552 6.405 5.396.291 1.293.291 2.459.291 3.106h-11c-.065 2.558 1.011 5.795 4.625 5.732 1.476-.025 2.518-.695 3.179-1.745zm29.196 2.925l-2.672.01s-.231-1.079-.306-2.257c-.776.806-2.216 2.473-5.126 2.473-2.976 0-5.184-1.765-5.184-4.351 0-.811.227-1.618.681-2.3.877-1.295 2.5-2.331 7.059-2.686l2.423-.194v-.389c0-1.586 0-4.239-3.416-4.239-2.149 0-2.881 1.042-3.129 1.983l-2.366-.988c.037-.082.08-.166.125-.251.909-1.682 2.692-2.718 5.271-2.718 1.42 0 3.258.357 4.456 1.295 1.705 1.292 1.664 3.837 1.664 3.837l.103 7.854c0 .002.091 2.282.417 2.921zm-3.513-4.222c.388-.841.421-1.197.421-3.433-1 .162-2.353.356-4.009.713-2.846.614-3.331 1.686-3.331 2.753 0 1.23.971 2.267 2.878 2.267 1.78 0 3.299-.712 4.041-2.3zm-85.434 4.222l-2.672.01s-.232-1.079-.306-2.257c-.776.806-2.214 2.473-5.125 2.473-2.978 0-5.185-1.765-5.185-4.351 0-.811.227-1.618.682-2.3.877-1.295 2.499-2.331 7.056-2.686l2.426-.194v-.389c0-1.586 0-4.239-3.418-4.239-2.149 0-2.879 1.042-3.129 1.983l-2.366-.988c.039-.082.08-.166.126-.251.909-1.682 2.693-2.718 5.27-2.718 1.419 0 3.259.357 4.456 1.295 1.705 1.292 1.664 3.837 1.664 3.837l.103 7.854c0 .002.091 2.282.418 2.921zm-3.513-4.222c.39-.841.42-1.197.42-3.433-.998.162-2.353.356-4.007.713-2.844.614-3.33 1.686-3.33 2.753 0 1.23.969 2.267 2.876 2.267 1.779 0 3.298-.712 4.041-2.3z" fill="#8A0051" clip-rule="evenodd" fill-rule="evenodd"/><path d="M187.068 24.4318c-.01-.094-.021-.188-.044-.279-.048-.186-.099-.372-.17-.55-.077-.189-.172-.372-.273-.549-.113-.195-.239-.382-.372-.565-.077-.107-.166-.207-.258-.302-.103-.106-.209-.211-.325-.303-.262-.208-.522-.42-.808-.595-.624-.383-1.246-.781-1.916-1.076-.81-.356-1.593-.778-2.428-1.068l-5.627-1.954c0-1.07.031-2.14 0-3.209-.047-1.587-.111-3.175-.234-4.758-.086-1.102-.218-2.201-.39-3.293-.134-.852-.337-1.692-.526-2.533-.043-.193-.108-.38-.172-.566a7.501 7.501 0 00-.188-.499c-.062-.148-.13-.294-.203-.438a5.0456 5.0456 0 00-.216-.378 4.4596 4.4596 0 00-.225-.324 3.5185 3.5185 0 00-.229-.273 3.343 3.343 0 00-.232-.229 2.9807 2.9807 0 00-.231-.186 2.5601 2.5601 0 00-.229-.149c-.073-.042-.147-.083-.225-.115-.136-.056-.274-.109-.415-.149-.117-.033-.238-.051-.358-.068-.09-.013-.181-.019-.271-.021-.154-.003-.31-.006-.463.005-.164.012-.328.032-.489.064a4.08 4.08 0 00-.511.133c-.18.06-.355.133-.524.216-.189.093-.37.201-.549.313-.189.119-.376.243-.555.377-.313.236-.633.465-.918.733-1.175 1.104-2.329 2.23-3.457 3.38-.602.613-1.185 1.247-1.73 1.909-2.168 2.625-4.326 5.258-6.411 7.949-.926 1.194-1.759 2.457-2.616 3.699-.214.311-.414.632-.599.961-.321.575-.622 1.161-.916 1.75-.076.153-.136.315-.194.476-.056.154-.107.31-.148.468-.038.149-.071.301-.088.454-.015.141-.017.284-.008.425.005.071.026.141.049.208.025.073.058.143.096.21.042.073.091.142.142.208.056.072.113.142.177.206.139.137.281.271.432.395.155.128.315.25.483.36.293.192.596.371.897.547.132.077.271.143.405.213.048.024-.095-.05-.142-.076-.006-.002-.021-.011-.016-.009.008.002.016.008.023.012.074.039.148.077.223.116 1.853.968 3.713 1.922 5.557 2.905 1.854.988 3.707 1.979 5.538 3.008l4.117 2.313c-1.43 1.082-2.887 2.127-4.287 3.244-.535.427-1.032.9-1.517 1.383-.394.393-.765.81-1.115 1.241-.28.345-.535.71-.773 1.085-.187.292-.351.601-.498.914-.112.238-.202.486-.281.737-.057.176-.094.357-.126.539-.019.109-.023.222-.029.334-.002.038.005.076.005.114.002.101-.003.201.003.301.005.094.016.188.031.279.014.089.033.177.057.264.022.082.051.164.082.244.031.077.066.153.104.227.038.072.077.145.126.21.095.13.191.259.304.373.113.114.237.218.367.313.13.096.27.18.412.258.144.078.293.146.445.209.151.063.303.13.463.165.575.127 1.154.243 1.738.322.286.039.577.055.864.032.995-.078 1.989-.179 2.975-.334 1.151-.181 2.293-.423 3.432-.672 1.343-.294 2.682-.605 4.012-.954.94-.247 1.896-.466 2.796-.834.709-.289 1.425-.565 2.128-.868.158-.067.307-.155.455-.242.134-.078.266-.163.392-.253.111-.079.221-.163.32-.257.084-.079.161-.167.229-.261.059-.079.108-.167.149-.258.036-.08.063-.166.082-.253.018-.079.026-.162.026-.243 0-.079-.01-.158-.024-.235-.016-.075-.038-.15-.066-.223a1.4237 1.4237 0 00-.102-.212 2.158 2.158 0 00-.128-.198 2.1658 2.1658 0 00-.148-.184c-.103-.108-.208-.217-.319-.315-.097-.086-.201-.163-.306-.237-.103-.073-.21-.141-.317-.206-.733-.442-1.463-.893-2.201-1.328l-3.091-1.825c1.877-1.273 3.771-2.522 5.631-3.822.795-.555 1.577-1.129 2.331-1.738.646-.522 1.261-1.082 1.863-1.652.287-.271.542-.572.802-.869.118-.135.227-.279.33-.426.095-.133.191-.267.266-.413.242-.48.48-.963.682-1.461.081-.203.115-.422.161-.636.021-.099.029-.201.037-.302.008-.097.011-.195.01-.292-.005-.094-.011-.19-.022-.284zm-23.072-12.632c1.048-1.087 2.098-2.172 3.164-3.242.194-.195.41-.37.618-.551.072-.063.149-.123.226-.182.059-.045.117-.092.181-.132a.9464.9464 0 01.142-.072c.052-.021.104-.042.16-.051.058-.01.117-.009.177-.006.03.001.06.009.089.019.03.009.061.023.089.039.03.017.06.037.086.059.031.025.06.053.086.083.03.034.058.07.082.108.028.044.058.089.076.138.051.132.097.267.131.405.049.197.087.397.118.599.076.492.146.985.201 1.479.072.64.124 1.282.183 1.923l.318 3.413-3.803-.875-3.549-.584-.859-.066-.279-.007c.787-.833 1.568-1.672 2.363-2.497zm-2.385 4.746l.014-.021.02-.011.029-.003.046.007.133.038.344.132.468.208c1.208.517 2.416 1.034 3.625 1.549.801.342 1.603.681 2.403 1.023l1.583.676.141.063c.085 1.251.189 2.501.255 3.753.052.978.073 1.958.097 2.937.003.124-.007.247-.016.37-.004.069-.011.139-.021.208-.011.069-.024.138-.044.204-.02.065-.042.131-.075.191-.031.059-.074.113-.117.165-.021.026-.05.049-.077.07a.8422.8422 0 01-.091.06.771.771 0 01-.106.046.8606.8606 0 01-.123.034 1.149 1.149 0 01-.154.016c-.054.001-.108 0-.162-.007a1.3288 1.3288 0 01-.169-.033c-.06-.015-.119-.031-.175-.054-.123-.052-.246-.107-.362-.173a3.978 3.978 0 01-.382-.25c-.136-.1-.266-.207-.392-.318-.138-.122-.273-.246-.398-.379-.274-.293-.545-.591-.799-.902-.459-.561-.936-1.112-1.339-1.714-.556-.83-1.126-1.65-1.667-2.49-.323-.501-.654-1-.923-1.534l-1.221-2.419-.263-.771-.06-.229-.036-.221-.003-.16zm13.492 21.441c.329.208.66.413.984.627.419.276.839.55 1.245.844.292.211.571.439.847.672.122.104.237.216.347.334.089.097.167.203.246.309.005.007.006.016.005.024 0 .019-.002.037-.008.055-.003.012-.012.022-.02.03a.1438.1438 0 01-.039.027.2449.2449 0 01-.06.018.6641.6641 0 01-.088.012c-1.604.12-3.21.23-4.813.356l-6.267.492-.195.012.09-.097.395-.349c.813-.604 1.599-1.245 2.437-1.813l3.549-2.406c.447.284.896.568 1.345.853zm4.827-12.338a.9773.9773 0 01-.066.168.984.984 0 01-.116.175c-.107.127-.22.251-.342.364-.262.239-.521.484-.81.689-.996.706-1.981 1.429-2.989 2.118-.694.475-1.41.919-2.118 1.374l-4.117 2.645c-.583-.334-1.166-.669-1.749-1.002l-7.456-4.262c-1.684-1.006-3.378-1.995-5.051-3.019-.315-.193-.611-.417-.912-.631-.096-.068-.185-.146-.277-.218-.029-.022-.061-.042-.088-.066-.063-.058-.127-.118-.186-.182-.036-.04-.066-.083-.096-.128-.029-.047-.058-.096-.078-.148-.021-.053-.04-.109-.048-.167a.61.61 0 01-.001-.181c.009-.066.027-.13.05-.192.024-.067.054-.133.091-.194.074-.126.153-.251.243-.368a4.5 4.5 0 01.333-.383c.963-.991 1.941-1.968 2.909-2.955l2.61-2.663.124.43.317.756.021.046c.69 1.196 1.338 2.417 2.07 3.588.841 1.346 1.744 2.653 2.646 3.958.424.611.866 1.21 1.332 1.791.405.505.824 1.001 1.279 1.463.399.405.836.775 1.28 1.132.22.176.467.318.709.463.114.07.237.126.36.181.117.051.236.096.357.135.118.038.238.069.36.094.11.023.223.041.335.051.102.009.205.011.308.007.094-.002.189-.011.283-.026.087-.013.174-.033.258-.057.08-.022.158-.05.235-.083.071-.029.141-.064.209-.102.064-.036.129-.073.188-.118.108-.082.216-.167.314-.26.084-.08.161-.168.231-.26.09-.117.171-.241.246-.368.091-.154.177-.313.252-.476.084-.182.162-.367.225-.557.13-.396.254-.795.353-1.201.133-.548.28-1.097.339-1.659l.338-3.251c.771.359 1.56.685 2.314 1.078.736.384 1.441.828 2.156 1.252.084.05.162.108.237.17.106.088.208.181.305.28.051.052.096.111.136.171.039.059.075.122.102.187.025.064.042.133.055.201.006.034.004.069.002.104a.3353.3353 0 01-.012.106z" fill="#EFAB00" clip-rule="evenodd" fill-rule="evenodd"/></svg>