<svg xmlns="http://www.w3.org/2000/svg" height="800" width="1200" id="svg27665" version="1.1" viewBox="-80.950395 -16.75 701.57009 100.5"><defs id="defs27631"><linearGradient gradientUnits="userSpaceOnUse" y2="70.384" x2="8.3754" y1="36.0601" x1="28.1922" id="linear-gradient"><stop id="stop27626" stop-color="#505f79" offset="0"/><stop id="stop27628" stop-color="#7a869a" offset=".92"/></linearGradient><style id="style27624">.cls-1{fill:#505f79}</style></defs><g transform="translate(.0003)" id="Layer_2"><g id="Layer_1-2"><g id="g27661"><g id="Layer_2-2"><g id="Blue"><path id="path27635" d="M296.3087 27.06c0 8 3.73 14.42 18.31 17.23 8.7 1.82 10.52 3.23 10.52 6.13s-1.82 4.64-8 4.64a44.89 44.89 0 01-21.13-5.72v13.1c4.39 2.15 10.19 4.56 21 4.56 15.25 0 21.3-6.79 21.3-16.9m0 0c0-9.53-5.05-14-19.31-17.07-7.87-1.74-9.78-3.48-9.78-6 0-3.15 2.82-4.47 8-4.47 6.3 0 12.51 1.91 18.4 4.56V14.63a41.58 41.58 0 00-18-3.73c-14.09 0-21.38 6.13-21.38 16.16" class="cls-1"/><path id="polygon27637" class="cls-1" d="M503.789 66.17V24.66l4.89 11.02 16.41 30.49h14.58V11.73h-11.6v35.14l-4.39-10.2-13.18-24.94h-18.31v54.44z"/><path id="rect27639" class="cls-1" d="M405.7287 11.73h12.68v54.44h-12.68z"/><path id="path27641" d="M391.0987 50.1c0-9.53-5.05-14-19.31-17.07-7.87-1.74-9.78-3.48-9.78-6 0-3.15 2.82-4.47 8-4.47 6.3 0 12.51 1.91 18.4 4.56V14.63a41.58 41.58 0 00-18-3.73c-14.09 0-21.38 6.13-21.38 16.16 0 8 3.73 14.42 18.31 17.23 8.7 1.82 10.52 3.23 10.52 6.13s-1.82 4.64-8 4.64a44.89 44.89 0 01-21.13-5.72v13.1c4.39 2.15 10.19 4.56 21 4.56 15.25 0 21.3-6.79 21.3-16.9" class="cls-1"/><path id="polygon27643" class="cls-1" d="M223.889 66.17l4.1-11.76h-17.4V11.73h-12.76v54.44z"/><path id="polygon27645" class="cls-1" d="M160.429 23.5v42.67h12.76V23.5h15.08V11.73h-41.93V23.5z"/><path id="path27647" d="M127.8387 11.73h-16.72l-19 54.44h14.55l2.66-9.17a36 36 0 0020.34 0l2.69 9.17h14.5zm-8.36 35.46a24.7602 24.7602 0 01-7-1l7-23.77 7 23.77a24.7602 24.7602 0 01-7 1z" class="cls-1"/><path id="path27649" d="M268.8087 11.73h-16.72l-19 54.44h14.5l2.71-9.17a36 36 0 0020.3 0l2.69 9.17h14.5zm-8.36 35.46a24.7601 24.7601 0 01-7-1l7-23.77 7 23.77a24.7605 24.7605 0 01-7 1z" class="cls-1"/><path id="path27651" d="M464.0887 11.73h-16.72l-19 54.44h14.5l2.71-9.17a36 36 0 0020.3 0l2.69 9.17h14.5zm-8.36 35.46a24.7601 24.7601 0 01-7-1l7-23.77 7 23.77a24.7605 24.7605 0 01-7 1z" class="cls-1"/></g></g><g id="g27659"><path id="path27655" d="M19.0362 30.8747v-.0003a1.6356 1.6356 0 00-1.3973-.5633 1.3476 1.3476 0 00-1.0001.8029L.1528 64.0675a1.4442 1.4442 0 001.2913 2.0912h22.955a1.3888 1.3888 0 001.286-.8005c4.8228-9.952 1.8382-25.417-6.6489-34.4835z" fill="url(#linear-gradient)"/><path id="path27657" d="M66.0503 64.0792C65.7413 63.4605 35.1627 2.276 34.4107.7547a1.3017 1.3017 0 00-1.1-.7537L33.2587 0a1.5789 1.5789 0 00-1.3001.8121l-.0014.0014c-8.2889 13.1308-9.2281 28.9849-2.5116 42.41l11.0656 22.13a1.4382 1.4382 0 001.2955.8165h22.9516a1.4438 1.4438 0 001.292-2.0908z" fill="#7a869a"/></g></g></g></g></svg>