<svg xmlns="http://www.w3.org/2000/svg" height="800" width="1200" viewBox="-44.7 -17.016875 387.4 102.10125"><defs><clipPath clipPathUnits="userSpaceOnUse" id="b"><path d="M692.697 746H866.43v54.294H692.697z"/></clipPath><clipPath clipPathUnits="userSpaceOnUse" id="a"><path d="M706.23 757.475h145.453v33.224H706.23z"/></clipPath></defs><g clip-path="url(#a)" transform="matrix(2.04878 0 0 -2.04878 -1446.913 1619.9718)"><path d="M717.8357 765.202c-2.386 0-4.579.817-6.318 2.187 2.022 4.564 6.142 10.687 11.76 16.667 2.868-1.809 4.773-5.003 4.773-8.643 0-1.554-.35-3.028-.971-4.347-1.782.825-3.444 1.857-4.854 3.16l3.078-5.778c-1.865-1.998-4.519-3.246-7.468-3.246m-10.212 10.211c0 5.643 4.571 10.214 10.212 10.214 1.512 0 2.945-.329 4.239-.917-5.535-4.892-9.821-10.578-12.357-15.492-1.313 1.721-2.094 3.864-2.094 6.195m20.739-4.895c.695 1.487 1.081 3.147 1.081 4.895 0 4.035-2.059 7.589-5.185 9.669 1.862 1.916 3.877 3.809 6.022 5.618-2.514-1.479-4.876-3.172-7.059-5.001-1.609.844-3.442 1.324-5.386 1.324-6.409 0-11.606-5.2-11.606-11.61 0-2.893 1.06-5.543 2.813-7.573-2.224-4.809-2.613-8.671-.653-9.977 2.097-1.399 6.659 1.137 9.397 5.267 0 0-4.234-3.82-6.56-2.944-1.431.542-1.436 2.731-.256 5.87 1.924-1.414 4.296-2.249 6.865-2.249 3.181 0 6.06 1.278 8.157 3.348l.412-.776c5.059.411 20.164.811 20.164.811 0 .725-10.001.067-18.206 3.328" fill="#1d439c"/></g><path d="M187.225 29.1311l3.8743-5.1465-13.4953-.0041 3.3252-4.409h13.4953l3.8845-5.1445h-26.9477L152.824 39.0268h26.9518l3.8702-5.1507h-13.4913l3.567-4.745zm18.7158-14.7039l-18.5292 24.5997h13.444l18.5334-24.5997zm44.7975 0l-9.3917 12.471-2.8887-12.471h-10.5083l-18.5333 24.5997h8.8938l9.3138-12.3603 2.86 12.3603h10.619l18.5373-24.5997z" fill="#1d439c" fill-rule="evenodd"/><g clip-path="url(#b)" transform="matrix(2.04878 0 0 -2.04878 -1446.913 1619.9718)"><path d="M850.0741 783.6571l-10.55.002c-1.805 0-3.406-.865-4.418-2.206l-5.445-7.227c-.205-.268-.324-.603-.324-.966 0-.888.719-1.61 1.607-1.61h10.548c1.807 0 3.412.866 4.422 2.206l1.308 1.735h1.524l1.905 2.53h-8.08l-2.551-3.384a1.4276 1.4276 0 00-1.146-.573h-1.857c-.235 0-.421.188-.421.418 0 .096.032.183.086.25l4.326 5.743c.261.349.677.571 1.146.571h1.859c.233 0 .419-.187.419-.417 0-.092-.034-.181-.086-.253l-.702-.933h6.556l1.16 1.541c.201.267.322.6.322.965 0 .888-.722 1.608-1.608 1.608m-72.9191-3.1807l-4.328-5.74a1.4252 1.4252 0 00-1.146-.572h-1.859c-.229 0-.415.187-.415.416 0 .098.032.185.082.252l4.326 5.741c.265.345.68.573 1.147.573h1.86c.231 0 .417-.188.417-.417a.436.436 0 00-.084-.253m7.334 1.573c0 .887-.718 1.608-1.608 1.608h-10.543c-1.807 0-3.41-.863-4.422-2.204l-5.446-7.227c-.203-.27-.322-.603-.322-.967 0-.887.718-1.609 1.606-1.609h10.545c1.809 0 3.414.866 4.424 2.206l5.445 7.226c.202.268.321.602.321.967m-27.379-1.573l-.692-.916c-.263-.344-.676-.568-1.147-.568l-2.695.002 1.625 2.152h2.574c.229 0 .417-.188.417-.417 0-.092-.03-.181-.082-.253m-3.519-4.665l-.812-1.077c-.261-.346-.675-.57-1.146-.57h-2.693l1.743 2.316h2.576c.23 0 .417-.186.417-.417 0-.096-.032-.183-.085-.252m6.092 1.55c1.293.291 2.418 1.04 3.189 2.065l1.247 1.656c.203.268.324.602.324.967 0 .887-.719 1.608-1.607 1.608h-13.307l-9.046-12.007h13.768c1.809 0 3.413.866 4.423 2.206l1.276 1.694c.165.213.257.484.257.772 0 .427-.208.803-.524 1.039" fill="#1d439c"/></g></svg>