<svg xmlns="http://www.w3.org/2000/svg" height="800" width="1200" version="1.0" viewBox="-16.2924 -4.44075 141.2008 26.6445"><path d="M45.365 7.256l-.986.023V3.336h1.13c.856 0 1.137.628 1.137 2 0 1.372-.316 1.92-1.281 1.92m4.975 8.99V12.02c0-2.004-.715-3.169-2.243-3.443 1.776-.471 2.262-1.961 2.262-3.869 0-2.69-.967-4.362-4.104-4.362h-5.618l.003 17.417h3.74V10.19h.922c.9 0 1.327.621 1.327 1.45v4.633c0 .77.155 1.338.261 1.489h3.783c-.132-.144-.333-.745-.333-1.516M8.387 14.801c.669-.558.784-1.249.784-1.869v-2.604H5.535v3.533c0 .506-.409.916-.914.916-.505 0-.881-.41-.881-.916V3.852c0-.505.376-.915.881-.915s.914.41.914.915v3.556h3.631V3.719C9.166 1.681 7.834.004 4.59 0 1.259 0 0 1.685 0 3.723v10.451c0 2.02 1.604 3.548 3.655 3.548h1.126zm94.927-7.554h-.993v-3.92h1.136c.854 0 1.137.628 1.137 1.999 0 1.373-.314 1.921-1.28 1.921m4.971 8.99V12.01c0-2.003-.712-3.168-2.24-3.443 1.776-.47 2.262-1.959 2.262-3.866 0-2.692-.97-4.364-4.104-4.364h-5.619v17.417h3.749v-7.572h.915c.902 0 1.324.62 1.324 1.45v4.633c0 .771.159 1.338.264 1.489h3.78c-.13-.145-.331-.747-.331-1.517m-17.489-4.75l.974-8.127.972 8.127zM94.275.303h-5.029l-2.988 17.45h3.786l.371-3.079 2.705-.002.369 3.081h3.789zM73.034.341v14.105h3.997v3.305h-7.833V.341zm-9.701.001h3.833v17.41h-3.833z"/><path d="M73.034.341v14.105h3.997v3.305h-7.833V.341zm8.753 0v14.105h3.999v3.305h-7.832V.341zm-24.73 7.423l-1.144-.014V3.334h1.138c.972 0 1.135.666 1.135 2.26 0 1.647-.164 2.17-1.129 2.17m.965-7.422h-5.845v17.417h3.748v-6.912h2.097c3.443 0 4.024-2.194 4.024-5.253.001-3.058-.58-5.252-4.024-5.252M38.13 7.11v3.411h-3.969v3.866l4.716-.002v3.361l-8.555.004V.338h-.004 8.404V3.66h-4.561v3.45zM20.211 3.726V.343h9.082v3.383h-2.522v13.975h-1.076l-2.974-2.49V3.726z"/><path fill="#ffc400" d="M6.34 17.727h18.008l-8.844-7.411z"/><path d="M14.526 8.319l.979-5.004.974 5.004zM18.027.361h-5.066L10.01 13.604l5.496-4.437 5.73 4.802z"/></svg>