<svg xmlns="http://www.w3.org/2000/svg" height="800" width="1200" viewBox="-44.92509 -16.6483 389.35078 99.8898"><path d="M89.2206 60.7932h44.89v5.64h-44.93c-4.06-.01-7.33-3.31-7.32-7.37V.0432h5.66v59.05c.01.94.77 1.7 1.7 1.7zm-26.36-60.75h-7.18l-47.26 60.31c-.39.55-1.11.76-1.73.5-.63-.2-1.05-.8-1.03-1.46V.0432h-5.66v59.35c-.04 3.09 1.93 5.84 4.86 6.8.77.26 1.58.4 2.4.4 2.2 0 4.28-1.01 5.62-2.76l22.56-28.81 24.46 31.4h7.32l-28.18-35.97zm147.19 66.39h6.26l-29.06-62.17c-1.69-3.68-6.05-5.28-9.72-3.59-1.58.73-2.86 2-3.59 3.59l-29.05 62.18h6.28l27.93-59.75c.27-.58.86-.95 1.5-.93.64-.03 1.24.34 1.5.93z" fill="#41007f"/><path d="M232.9406.0432h66.56v66.39h-66.56z" fill="#00a7e1"/><path d="M294.5106 30.1232h-25.16v-25.1h-6.26v25.1h-25.16v6.24h25.16v25.1h6.26v-25.1h25.16v-6.24z" fill="#fff"/></svg>