<svg xmlns="http://www.w3.org/2000/svg" height="800" width="1200" viewBox="-57.11358 -24.81215 494.98436 148.8729"><defs><clipPath id="a" clipPathUnits="userSpaceOnUse"><path d="M0 6.169h1180.258V841.89H0z"/></clipPath></defs><g clip-path="url(#a)" transform="matrix(5.0077 0 0 -5.61215 -2766.3686 2969.714)"><path d="M574.5171 526.7393h-5.58c-.274 0-.533-.136-.682-.344l-.943-1.38s5.622.001 5.622 0a.6787.6787 0 00.636-.677l-.001-2.637h-4.217v.758c0 .15.122.271.271.271h2.946v.975c0 .239-.148.373-.35.373h-4.086c-.5 0-.905-.405-.905-.904v-2.406c0-.011.004-.024.01-.039.056-.361.368-.626.744-.626h7.967v5.202c0 .792-.641 1.434-1.432 1.434m50.8306 0h-5.578c-.276 0-.534-.136-.683-.344l-.944-1.38s5.623.001 5.623 0c.354-.022.637-.317.637-.677l-.002-2.637h-4.218v.758c0 .15.122.271.272.271h2.947v.975c0 .239-.149.373-.352.373h-4.085c-.5 0-.904-.405-.904-.904v-2.406c0-.011.004-.024.01-.039.055-.361.367-.626.744-.626h7.967v5.202c0 .792-.642 1.434-1.434 1.434m-17.5635 2.4126v-7.395h-3.5c-.242 0-.411.216-.411.394v2.187c0 .375.304.677.679.677h1.77c.265 0 .536.151.647.336l.815 1.387-4.908-.001c-.79 0-1.433-.641-1.433-1.432 0-.005.001-.008.001-.013l-.001-4.003c0-.762.616-1.186 1.176-1.186h7.595v9.049zm5.0166-2.4136c-.604 0-.994-.467-.994-.968v-5.668h2.43v4.225c-.001.38.269.695.654.695h1.798c.261.017.488.17.626.374l.943 1.342zm-25.2222-2.1582v-4.478h2.413v6.56s-1.12-.697-1.912-1.191c-.302-.194-.501-.52-.501-.891m0 4.578h2.413v-1.672l-2.413-1.602zm-23.5469-.0058h-11.609v-9.049h2.411v6.937h2.577a.4484.4484 0 00.441-.451h.001v-6.486h2.413v6.486c0 .25.203.452.453.452.001 0 .002-.001.004-.001h1.899c.366 0 .663-.296.663-.662v-6.275h2.412v7.385c0 .918-.746 1.664-1.665 1.664m34.4087-2.4145l-6.861-.004v-6.631h2.428v4.914h2.764c.375 0 .679-.303.679-.678h.001v-4.236h2.422v5.202c0 .791-.642 1.433-1.433 1.433m-12.455-1.4312c0 .791-.641 1.433-1.433 1.433-.006 0-.021-.001-.022 0h-3.152c-.284 0-.421-.143-.568-.362-.008-.011-.948-1.362-.948-1.362h3.061c.362-.016.65-.313.65-.678l-.001-4.234h2.413v5.203m-8.536 3.845h2.414v-9.048h-2.414z" fill="#e51636"/><path d="M613.9414 516.3403c0 .229-.044.419-.128.572-.085.152-.196.275-.337.368-.139.093-.298.159-.475.197-.178.038-.361.057-.547.057-.187 0-.375-.002-.566-.006-.19-.004-.379-.006-.564-.006l-.331-2.682c.194-.017.384-.031.565-.044.183-.013.37-.019.566-.019.585 0 1.033.131 1.346.394.314.262.471.652.471 1.169m.838-4.388c0-.138-.072-.246-.216-.323-.144-.079-.39-.118-.737-.118-.084 0-.158.024-.223.071a.4775.4775 0 00-.145.171l-1.233 2.516a.9136.9136 0 00-.166-.013h-.139c-.186 0-.349.007-.489.019-.139.013-.303.032-.49.057l-.354-2.731c-.043-.018-.096-.031-.16-.038-.063-.009-.141-.014-.236-.014-.144 0-.242.028-.298.083-.055.055-.083.142-.083.261 0 .042.01.139.027.292.016.153.038.343.063.572.025.229.055.487.089.775.034.288.071.593.114.915.067.516.138 1.029.209 1.537.072.508.143 1.021.21 1.538l-.825.025c-.034.043-.051.102-.051.178 0 .262.207.394.622.394h2.352c.254 0 .508-.026.76-.077.255-.05.483-.139.681-.265.198-.127.359-.296.484-.508.122-.211.183-.473.183-.786 0-.583-.154-1.038-.464-1.363-.308-.325-.734-.569-1.276-.729l1.155-2.257.548.051c.059-.06.088-.137.088-.233m2.7645 5.9193c0-.161-.052-.288-.153-.381-.102-.094-.25-.14-.446-.14-.143 0-.259.032-.348.095-.089.064-.134.172-.134.324 0 .153.056.278.166.375.109.098.262.146.457.146.169 0 .287-.038.355-.114.069-.076.103-.178.103-.305m.222-5.919c0-.121-.081-.223-.243-.305-.161-.082-.43-.123-.812-.123-.237 0-.415.046-.533.14-.119.093-.178.262-.178.508 0 .178.024.441.075.788l.433 3.011-.801-.025c-.059.05-.089.118-.089.203 0 .144.082.25.247.318.166.068.451.101.859.101.246 0 .406-.031.482-.094.076-.064.103-.188.076-.374l-.266-1.964c-.06-.423-.111-.79-.153-1.103-.043-.312-.063-.519-.063-.62 0-.119.02-.192.063-.222.042-.03.145-.045.306-.045.059 0 .142.011.247.033.107.021.189.04.248.057.068-.051.102-.146.102-.284m4.4333 4.1465c0-.119-.022-.206-.069-.26-.047-.056-.118-.1-.209-.135-.17.137-.357.228-.56.274-.204.046-.433.07-.685.07-.366 0-.643-.08-.833-.241-.191-.162-.287-.339-.287-.535 0-.126.017-.234.051-.323.034-.089.098-.172.192-.248.092-.076.221-.15.386-.222.165-.072.375-.155.629-.248.23-.093.417-.182.567-.267.147-.085.263-.176.348-.273.084-.097.145-.203.178-.318.034-.114.052-.239.052-.375 0-.178-.036-.356-.109-.533-.073-.178-.182-.337-.331-.477-.147-.139-.337-.252-.564-.336-.23-.085-.5-.127-.814-.127-.119 0-.282.004-.489.011a3.582 3.582 0 00-.623.082c-.208.045-.388.116-.54.211-.152.095-.228.227-.228.394 0 .119.038.212.115.28.075.067.173.119.292.152.177-.203.415-.349.711-.438.297-.089.576-.133.839-.133.321 0 .574.07.755.21.182.14.274.325.274.554 0 .187-.072.344-.217.471-.144.128-.415.264-.812.408-.254.085-.47.174-.649.268-.178.093-.319.195-.426.306-.105.11-.183.237-.235.382-.051.144-.075.314-.075.509 0 .213.049.408.145.587.098.178.234.333.408.465.172.131.379.235.623.312.24.076.504.114.793.114.44 0 .784-.052 1.03-.158.244-.106.367-.244.367-.413m3.9141-.7246c0 .229-.07.408-.21.541-.14.13-.388.196-.743.196-.161 0-.33-.025-.509-.076-.178-.051-.348-.136-.508-.254-.161-.119-.306-.28-.438-.483-.131-.203-.231-.458-.299-.762.144-.026.324-.045.541-.058.216-.012.412-.019.591-.019.584 0 .993.079 1.225.235.234.157.35.384.35.68m.686.089c0-1.016-.738-1.525-2.21-1.525-.196 0-.4.007-.611.019-.212.013-.428.036-.647.07a.8595.8595 0 01-.014-.152v-.127c0-1.102.453-1.652 1.359-1.652.281 0 .56.029.839.089.281.059.555.152.827.279.101-.075.152-.173.152-.292 0-.17-.149-.328-.444-.476-.297-.148-.785-.223-1.461-.223-1.347 0-2.022.703-2.022 2.11 0 .457.06.876.179 1.257.117.382.292.708.52.979.23.271.513.48.852.629.339.148.732.222 1.182.222.288 0 .527-.032.717-.095.191-.064.343-.148.457-.254a.8834.8834 0 00.248-.382c.051-.148.077-.306.077-.476m1.6577-3.3165c0-.187-.06-.33-.178-.432-.119-.102-.284-.152-.495-.152-.152 0-.279.036-.382.108-.1.072-.152.192-.152.361 0 .171.06.31.179.42.118.11.288.165.507.165.186 0 .321-.042.401-.126.079-.086.12-.2.12-.344" fill="#656263"/></g></svg>