<svg id="Layer_1" data-name="Layer 1" xmlns="http://www.w3.org/2000/svg" viewBox="0 0 495.99 269.07"><defs><style>.cls-1{fill:none;stroke:#fff;stroke-miterlimit:10;stroke-width:3px;}</style></defs><title>dice alone white 3 pts</title><path class="cls-1" d="M718.38,684.29V728c-.74,19.24-9.65,34-25.24,43.66-25.25,14.8-50.49,28.86-76.48,43.67-8.16,5.18-17.07,0-17.82-9.62V718.33c0-21.46,9.66-37.74,28.22-48.1,24.5-14.06,49-28.12,72.76-42.19,5.94-3.7,12.62-2.22,16.33,3,2.23,3,2.23,5.93,2.23,8.89v44.4Zm-66.82,67.35c0-5.18-1.48-8.14-5.2-9.62-3.71-2.22-6.68-1.48-9.65.74a26.32,26.32,0,0,0-12.62,22.94c0,3.7,1.48,6.66,4.45,8.14,3,2.22,6.69,1.48,9.66-.74C646.36,767.92,650.82,760.52,651.56,751.64Zm43.06-76.23c0-3.7-.74-6.66-4.45-8.88s-6.68-1.48-9.65.74c-8.17,5.18-12.63,13.32-11.88,22.94,0,7.4,7.42,11.1,13.36,7.4C690.17,692.43,693.88,685,694.62,675.41Z" transform="translate(-471.87 -549.76)"/><path class="cls-1" d="M594.39,757.56V802c0,3,0,5.93-2.23,8.89-3.71,5.18-9.65,5.92-15.59,3-20-11.85-40.09-22.95-59.39-34-5.94-3.7-11.88-6.66-17.82-10.36-17.08-10.36-26-25.9-26-45.88V637.67c0-9.63,9.65-16.29,18.56-10.37,25.25,14.81,50.49,28.87,75,43.67,18.56,10.36,27.47,26.64,27.47,47.36Zm-51.23-57a27.52,27.52,0,0,0,13.37,22.21c3,2.22,5.94,2.22,9.65,0,3-2.22,5.2-5.19,4.45-8.89a27.48,27.48,0,0,0-13.36-22.2,7.82,7.82,0,0,0-9.65,0C544.65,694.65,543.16,696.87,543.16,700.57ZM526.08,739.8c-.74-9.62-5.19-17-14.1-22.21-5.94-3.7-13.37.74-13.37,8.15A25,25,0,0,0,512,747.94a7.82,7.82,0,0,0,9.65,0C525.34,747.2,526.83,743.5,526.08,739.8Z" transform="translate(-471.87 -549.76)"/><path class="cls-1" d="M843.11,759V802.7c0,11.11-9.65,16.29-19.3,11.11-24.5-14.81-49.74-28.87-75-42.93-18.56-10.36-27.47-26.64-27.47-47.36V638.41c0-7.41,5.94-13.33,13.37-12.59a8,8,0,0,1,5.19,2.22c25.25,14.81,51.23,28.87,76.48,43.67,17.82,10.36,26,25.9,26.72,46.62Zm-95.77-79.93c.74,8.14,5.19,15.54,13.36,20.72,3,2.22,5.94,1.48,9.65,0a10.22,10.22,0,0,0,4.46-8.14c-.74-9.62-5.2-17.76-13.37-22.2-3-2.22-5.94-2.22-9.65,0S747.34,673.93,747.34,679.11Zm72,86.59c-.74-8.14-5.19-15.54-12.62-20.72-3-2.22-6.68-3-9.65-.74-3.71,2.22-4.45,5.18-4.45,9.62.74,9.62,5.19,16.28,13.36,21.46,3,2.22,5.94,2.22,9.65,0C817.87,773.84,819.35,770.88,819.35,765.7Z" transform="translate(-471.87 -549.76)"/><path class="cls-1" d="M596.62,674.67a52.27,52.27,0,0,1-26-6.66c-25.24-14.8-50.49-28.86-75-43.67-8.9-5.18-8.9-16.28,0-21.46,25.25-14.8,50.49-29.6,76.48-43.66,17.82-9.63,35.64-9.63,52.71,0,25.25,14.06,49.75,28.86,75,42.92,8.91,5.18,8.91,16.28,0,21.46-25.24,14.81-51.23,29.61-77.22,44.41A52.2,52.2,0,0,1,596.62,674.67Zm-46-49.59a30.77,30.77,0,0,0,14.1-3.7,9,9,0,0,0,0-15.54,26.22,26.22,0,0,0-27.47,0,9,9,0,0,0,0,15.54C541.68,623.6,546.13,625.08,550.59,625.08Zm86.86-.74c6.69,0,11.88-1.48,15.59-3.7a9,9,0,0,0,0-15.54q-13.35-7.77-26.72,0c-6.69,3.7-6.69,11.84,0,15.54A18.1,18.1,0,0,0,637.45,624.34Z" transform="translate(-471.87 -549.76)"/><path class="cls-1" d="M845.34,674.67c-9.65,0-18.56-2.22-26-6.66-25.24-14.8-49.74-28.86-75-43.67-8.91-5.18-8.91-16.28,0-21.46,25.24-14.8,51.23-29.6,77.21-44.4,17.08-9.63,34.9-9.63,52.72,0,25.24,14.06,49.74,28.86,75,42.92,8.91,5.18,8.91,16.28,0,21.46-25.24,14.81-51.23,28.87-76.47,43.67C863.16,672.45,854.25,674.67,845.34,674.67Zm-45.29-72.53c-5.2,0-8.91.74-13.36,3.7-3.72,2.22-5.2,4.44-5.2,8.88a9.1,9.1,0,0,0,5.2,8.14c8.91,4.44,17.82,4.44,26-.74,6.68-3.7,5.94-11.84,0-15.54A20.18,20.18,0,0,0,800.05,602.14Zm88.35,0a27.25,27.25,0,0,0-13.36,3c-3.71,2.22-5.2,4.44-5.2,8.14a9.1,9.1,0,0,0,5.2,8.14c8.91,4.44,17.82,4.44,26-.74a9,9,0,0,0,0-15.54C897.31,602.88,892.86,602.14,888.4,602.14Z" transform="translate(-471.87 -549.76)"/><path class="cls-1" d="M846.83,759V714.63c.74-19.24,9.65-34,26-43.66,24.5-14.8,49.75-28.86,75-42.93,9.65-5.18,18.56,0,18.56,10.37v76.22c0,7.41,0,15.55-1.48,23-3,14.8-11.88,26.64-25.25,34-25.24,14.8-49.74,28.86-75,43.67-8.9,5.18-18.56,0-18.56-10.36.75-15.55.75-30.35.75-45.89Zm52.71-7.4c0-3.7-.74-6.66-4.45-8.88s-6.69-1.48-9.66.74c-8.16,5.18-11.88,12.58-11.88,22.2a9.66,9.66,0,0,0,5.2,8.88,7.91,7.91,0,0,0,8.91-.74C895.09,767.92,899.54,761.26,899.54,751.64Zm17.08-62.91a9.65,9.65,0,0,0,5.19,8.88c3.71,2.22,6.68.74,9.65-.74,7.43-5.18,11.88-12.58,11.88-22.2,0-7.4-7.42-11.84-13.36-7.4C921.07,671.71,917.36,679.11,916.62,688.73Z" transform="translate(-471.87 -549.76)"/></svg>