<svg id="Main_Logo_White_Static" data-name="Main_Logo_White_Static" xmlns="http://www.w3.org/2000/svg" viewBox="0 0 610.09 277.32">
    <defs>
        <style>.static-white-cls-1{fill:#fff;}</style>
    </defs>
    <title>Main logo white </title>
    <path class="static-white-cls-1" d="M718.67,690.66v35.88c-.61,15.81-7.93,28-20.74,35.88-20.75,12.16-41.49,23.72-62.84,35.88-6.71,4.26-14,0-14.65-7.91V718.63c0-17.63,7.94-31,23.19-39.53,20.13-11.55,40.26-23.11,59.79-34.66,4.88-3,10.37-1.83,13.42,2.43,1.83,2.43,1.83,4.87,1.83,7.3v36.49ZM663.76,746c0-4.26-1.22-6.69-4.27-7.91-3-1.82-5.49-1.21-7.93.61a21.64,21.64,0,0,0-10.37,18.85c0,3,1.22,5.48,3.66,6.69,2.44,1.83,5.49,1.22,7.93-.61C659.49,759.38,663.15,753.3,663.76,746Zm35.39-62.64c0-3-.61-5.47-3.66-7.3s-5.49-1.21-7.94.61c-6.71,4.26-10.37,11-9.76,18.85a7,7,0,0,0,11,6.08C695.49,697.35,698.54,691.27,699.15,683.36Z" transform="translate(-414.95 -581.34)" />
    <path class="static-white-cls-1" d="M616.78,750.86v36.49c0,2.43,0,4.87-1.83,7.3-3.05,4.26-7.93,4.87-12.81,2.43-16.47-9.73-32.94-18.85-48.81-28-4.88-3-9.76-5.48-14.64-8.52-14-8.51-21.35-21.28-21.35-37.7V652.34c0-7.9,7.93-13.38,15.25-8.51,20.74,12.16,41.49,23.72,61.62,35.88,15.25,8.51,22.57,21.89,22.57,38.92ZM574.69,704a22.6,22.6,0,0,0,11,18.24c2.44,1.83,4.88,1.83,7.93,0,2.44-1.82,4.27-4.26,3.66-7.3a22.6,22.6,0,0,0-11-18.24,6.41,6.41,0,0,0-7.93,0C575.91,699.17,574.69,701,574.69,704Zm-14,32.23c-.61-7.91-4.27-14-11.6-18.25-4.88-3-11,.61-11,6.69a20.52,20.52,0,0,0,11,18.25,6.46,6.46,0,0,0,7.94,0C560.05,742.35,561.27,739.31,560.66,736.27Z" transform="translate(-414.95 -581.34)" />
    <path class="static-white-cls-1" d="M821.17,752.08V788c0,9.12-7.94,13.38-15.87,9.12-20.13-12.16-40.87-23.72-61.62-35.27-15.25-8.51-22.57-21.89-22.57-38.92V653a10.08,10.08,0,0,1,11-10.34,6.59,6.59,0,0,1,4.27,1.83c20.75,12.16,42.1,23.72,62.84,35.88,14.65,8.51,21.36,21.28,22,38.31ZM742.46,686.4c.61,6.69,4.27,12.77,11,17,2.44,1.82,4.88,1.21,7.93,0a8.41,8.41,0,0,0,3.66-6.69c-.61-7.91-4.27-14.6-11-18.25-2.45-1.82-4.89-1.82-7.94,0S742.46,682.14,742.46,686.4Zm59.18,71.15c-.61-6.69-4.27-12.77-10.37-17-2.44-1.82-5.49-2.43-7.93-.6-3.05,1.82-3.66,4.25-3.66,7.9.61,7.91,4.27,13.38,11,17.64,2.44,1.82,4.88,1.82,7.93,0C800.42,764.24,801.64,761.81,801.64,757.55Z" transform="translate(-414.95 -581.34)" />
    <path class="static-white-cls-1" d="M618.61,682.75a42.9,42.9,0,0,1-21.35-5.47c-20.74-12.17-41.49-23.72-61.62-35.88-7.32-4.26-7.32-13.38,0-17.64,20.75-12.16,41.49-24.33,62.84-35.88,14.64-7.91,29.29-7.91,43.32,0,20.74,11.55,40.87,23.72,61.62,35.27,7.32,4.26,7.32,13.38,0,17.64C682.67,653,661.32,665.11,640,677.28A42.91,42.91,0,0,1,618.61,682.75ZM580.79,642a25.23,25.23,0,0,0,11.59-3,7.4,7.4,0,0,0,0-12.77,21.57,21.57,0,0,0-22.57,0,7.4,7.4,0,0,0,0,12.77A24.86,24.86,0,0,0,580.79,642Zm71.38-.61c5.49,0,9.76-1.22,12.81-3a7.4,7.4,0,0,0,0-12.77q-11-6.39-22,0c-5.49,3-5.49,9.73,0,12.77A14.9,14.9,0,0,0,652.17,641.4Z" transform="translate(-414.95 -581.34)" />
    <path class="static-white-cls-1" d="M823,682.75a41.31,41.31,0,0,1-21.36-5.47C780.9,665.11,760.77,653.56,740,641.4c-7.32-4.26-7.32-13.38,0-17.64,20.75-12.16,42.1-24.33,63.45-36.49,14-7.9,28.68-7.9,43.32,0,20.74,11.56,40.87,23.72,61.62,35.27,7.32,4.26,7.32,13.38,0,17.64-20.75,12.16-42.1,23.72-62.84,35.88A41.77,41.77,0,0,1,823,682.75Zm-37.22-59.6c-4.27,0-7.32.61-11,3-3,1.83-4.27,3.65-4.27,7.3a7.48,7.48,0,0,0,4.27,6.69c7.32,3.65,14.64,3.65,21.35-.61,5.49-3,4.88-9.73,0-12.77A16.61,16.61,0,0,0,785.78,623.15Zm72.6,0a22.33,22.33,0,0,0-11,2.44c-3,1.82-4.27,3.64-4.27,6.68A7.46,7.46,0,0,0,847.4,639c7.32,3.65,14.64,3.65,21.35-.6a7.4,7.4,0,0,0,0-12.77A20,20,0,0,0,858.38,623.15Z" transform="translate(-414.95 -581.34)" />
    <path class="static-white-cls-1" d="M824.22,752.08V715.59c.61-15.81,7.93-28,21.35-35.88,20.13-12.16,40.87-23.72,61.62-35.27,7.93-4.26,15.25,0,15.25,8.51v62.64c0,6.08,0,12.77-1.22,18.85a40.52,40.52,0,0,1-20.74,28c-20.75,12.16-40.88,23.72-61.62,35.88-7.32,4.26-15.25,0-15.25-8.52.61-12.77.61-24.93.61-37.7ZM867.53,746c0-3-.61-5.48-3.66-7.3s-5.49-1.22-7.93.61c-6.71,4.26-9.76,10.34-9.76,18.24a7.94,7.94,0,0,0,4.27,7.3,6.48,6.48,0,0,0,7.32-.61C863.87,759.38,867.53,753.9,867.53,746Zm14-51.69a7.92,7.92,0,0,0,4.27,7.29c3,1.83,5.5.61,7.94-.6,6.1-4.26,9.76-10.34,9.76-18.25,0-6.08-6.1-9.73-11-6.08C885.23,680.32,882.17,686.4,881.56,694.31Z" transform="translate(-414.95 -581.34)" />
    <path class="static-white-cls-1" d="M738.3,836h23.8v-6.08H738.3v28H727.93V822h37.22c5.49,0,7.93,3,7.93,7.9v6.69a7,7,0,0,1-7.32,7.3h-4.88c4.88,4.87,9.15,9.12,14,14.6h-4.27c-3,0-7.32.6-9.76-.61-3-1.22-4.88-4.26-7.32-6.69C749.29,847,745,843.3,740.75,839A10.43,10.43,0,0,1,738.3,836Z" transform="translate(-414.95 -581.34)" />
    <path class="static-white-cls-1" d="M425.94,829.31V836h26.23c5.49,0,7.93,2.44,7.93,7.91V850c0,4.26-3.05,7.3-7.93,7.3H422.89c-4.89,0-7.33-2.43-7.94-7.3h34.17v-6.08H422.88c-5.49,0-7.93-2.43-7.93-7.91v-7.29c0-4.87,3.05-7.3,7.93-7.3h29.29c4.88,0,7.93,2.43,7.93,7.9Z" transform="translate(-414.95 -581.34)" />
    <path class="static-white-cls-1" d="M674.24,829.31H640.08V836h26.84c4.27,0,7.32,2.44,7.32,6.69v8.52c0,4.25-3,6.69-7.32,6.69h-30.5a7,7,0,0,1-7.32-7.3h34.16v-6.08H637c-5.49,0-7.93-2.43-8.54-8.52v-6.69a7,7,0,0,1,7.32-7.29h30.5C671.19,821.41,673.63,824.45,674.24,829.31Z" transform="translate(-414.95 -581.34)" />
    <path class="static-white-cls-1" d="M845.07,843.91V850h33.55c0,3-1.83,6.08-4.27,6.69a26.42,26.42,0,0,1-3.05.61H834.09V841.48c0-3.65,3.66-5.48,7.32-5.48h26.23v-6.08H834.09c-.61-4.25,2.44-7.9,6.1-7.9h31.72c3.66,0,6.1,3,6.1,7.29v7.91a7,7,0,0,1-7.32,7.3H846.9C846.9,843.91,846.29,843.91,845.07,843.91Z" transform="translate(-414.95 -581.34)" />
    <path class="static-white-cls-1" d="M905.47,857.9H890.22a7,7,0,0,1-7.32-7.3V828.71c0-4.26,3.05-6.69,7.32-6.69h30.5c4.27,0,6.71,2.43,6.71,6.08v23.11c0,4.25-3,6.08-7.32,6.08A108.11,108.11,0,0,1,905.47,857.9Zm-11.59-8.52h23.79V829.31H893.88Z" transform="translate(-414.95 -581.34)" />
    <path class="static-white-cls-1" d="M810.9,843.3c-2.44-4.26-4.27-7.9-6.71-12.77-3.05,5.47-6.1,11-8.54,15.81-1.83,3-3,6.08-4.88,8.52-.61,1.21-1.22,1.82-2.44,1.82h-11a3,3,0,0,0,.61-1.82c6.1-11,12.2-21.29,17.69-32.24a2.82,2.82,0,0,1,3.05-1.82h11a6.14,6.14,0,0,1,1.83.61c6.72,11.55,12.82,23.11,19.53,35.27h-7.93c-4.27.61-6.71-.61-7.94-4.86-.61-1.22-1.21-1.83-2.44-1.83h-18.3a44.92,44.92,0,0,0,4.27-7.3c0-.6,1.22-.6,1.83-.6C804.19,843.3,807.24,843.3,810.9,843.3Z" transform="translate(-414.95 -581.34)" />
    <path class="static-white-cls-1" d="M624.83,857.29h-11.6a2,2,0,0,1-1.83-1.83c-1.22-4.25-4.27-4.86-7.93-4.86-4.88.61-9.76,0-14.64,0a45.34,45.34,0,0,0,4.27-7.3c0-.61,1.22-.61,1.83-.61h9.76c-2.44-4.25-4.27-7.9-6.71-12.16-.61.61-.61,1.22-1.22,1.83-4.27,7.9-7.93,15.2-12.2,23.1-.61,1.22-1.22,1.83-2.44,1.83h-11c.61-.61.61-1.83,1.22-2.43,6.1-11,12.2-21.29,17.69-31.63a3.36,3.36,0,0,1,3.05-1.82h11a4.68,4.68,0,0,1,2.44,1.21c6.1,12.17,12.21,23.11,18.31,34.67Z" transform="translate(-414.95 -581.34)" />
    <path class="static-white-cls-1" d="M513.18,857.29c1.83-3,3.05-5.47,4.27-7.91,4.88-8.51,9.76-17.63,14.64-26.76a2.82,2.82,0,0,1,3-1.82h11a3.67,3.67,0,0,1,2.44.61c6.11,11.55,12.82,23.11,19.53,35.27h-7.93c-3.66.61-5.49-.61-6.71-4.26-.61-1.82-1.84-2.43-3.67-2.43H532.09a44.92,44.92,0,0,0,4.27-7.3c0-.6,1.22-.6,1.83-.6H548c-2.44-4.26-4.27-7.91-6.71-12.78-.61.61-.61,1.83-1.22,2.44-4.27,7.29-7.93,15.2-12.2,22.5a2.82,2.82,0,0,1-3.05,1.82C520.5,857.29,517.45,857.29,513.18,857.29Z" transform="translate(-414.95 -581.34)" />
    <path class="static-white-cls-1" d="M677.9,829.31v-7.9h44.54v7.9H705.36v28H695v-28Z" transform="translate(-414.95 -581.34)" />
    <path class="static-white-cls-1" d="M477.79,836h21.36V821.41h10.37v35.27H499.15V843.3H477.79Z" transform="translate(-414.95 -581.34)" />
    <path class="static-white-cls-1" d="M474.74,857.29H465V821.41h9.76Z" transform="translate(-414.95 -581.34)" />
    <path class="static-white-cls-1" d="M942.68,844.52v6.08h33.56c0,3-1.83,6.08-4.27,6.69a26.42,26.42,0,0,1-3.05.61H931.7V842.09c0-3.65,3.66-5.48,7.32-5.48h26.24v-6.08H931.7c-.61-4.26,2.44-7.91,6.1-7.91h31.73c3.66,0,6.1,3,6.1,7.3v7.91a7,7,0,0,1-7.32,7.3h-23.8C944.51,844.52,943.9,844.52,942.68,844.52Z" transform="translate(-414.95 -581.34)" />
    <path class="static-white-cls-1" d="M991.49,844.52v6.08h33.56c0,3-1.83,6.08-4.27,6.69a26.42,26.42,0,0,1-3,.61H980.51V842.09c0-3.65,3.66-5.48,7.32-5.48h26.24v-6.08H980.51c-.61-4.26,2.44-7.91,6.1-7.91h31.73c3.66,0,6.1,3,6.1,7.3v7.91a7,7,0,0,1-7.32,7.3h-23.8C993.32,844.52,992.71,844.52,991.49,844.52Z" transform="translate(-414.95 -581.34)" />
</svg>