<svg id="Layer_1" data-name="Layer 1" xmlns="http://www.w3.org/2000/svg" viewBox="0 0 910.55 414.91">
    <defs>
        <style>.cls-1{fill:#fff;}.cls-2{fill:none;stroke:#fff;stroke-miterlimit:10;stroke-width:2px;}</style>
    </defs>
    <title>text outline white</title>
    <path class="cls-1" d="M718,676.31v53.42c-.91,23.55-11.81,41.66-30.89,53.43-30.88,18.11-61.77,35.32-93.56,53.43-10,6.33-20.9,0-21.81-11.78V718c0-26.26,11.81-46.18,34.52-58.86,30-17.2,60-34.41,89-51.61,7.27-4.53,15.44-2.72,20,3.62C718,614.73,718,618.36,718,622v54.33Zm-81.76,82.4c0-6.34-1.81-10-6.36-11.77-4.54-2.72-8.17-1.81-11.81.9a32.22,32.22,0,0,0-15.44,28.08c0,4.52,1.82,8.15,5.45,10,3.63,2.71,8.18,1.81,11.81-.91C629.9,778.63,635.35,769.58,636.26,758.71ZM689,665.44c0-4.53-.91-8.15-5.45-10.86s-8.18-1.81-11.81.9c-10,6.34-15.44,16.3-14.53,28.07,0,9.06,9.08,13.59,16.35,9.06C683.5,686.27,688,677.21,689,665.44Z" transform="translate(-264.66 -513.54)" />
    <path class="cls-1" d="M566.31,766v54.33c0,3.62,0,7.24-2.72,10.86-4.54,6.34-11.81,7.25-19.08,3.62-24.52-14.48-49.05-28.07-72.67-41.65-7.27-4.53-14.54-8.15-21.8-12.68-20.9-12.67-31.8-31.69-31.8-56.14v-105c0-11.77,11.81-19.92,22.71-12.68,30.89,18.11,61.78,35.32,91.75,53.43,22.71,12.68,33.61,32.6,33.61,58Zm-62.68-69.73Q505,713.89,520,723.4c3.63,2.71,7.26,2.71,11.81,0,3.63-2.72,6.35-6.34,5.45-10.87q-1.37-17.65-16.36-27.17a9.59,9.59,0,0,0-11.81,0C505.45,689,503.63,691.7,503.63,696.23Zm-20.89,48c-.91-11.77-6.36-20.82-17.26-27.16-7.27-4.53-16.35.9-16.35,10a30.54,30.54,0,0,0,16.35,27.16,9.57,9.57,0,0,0,11.81,0C481.83,753.28,483.65,748.75,482.74,744.22Z" transform="translate(-264.66 -513.54)" />
    <path class="cls-1" d="M870.63,767.77v53.42c0,13.58-11.81,19.92-23.62,13.58-30-18.11-60.86-35.31-91.75-52.52-22.71-12.67-33.61-32.59-33.61-58V620.17c0-9.06,7.27-16.3,16.36-15.4a9.82,9.82,0,0,1,6.35,2.72c30.89,18.11,62.69,35.31,93.57,53.43,21.8,12.67,31.8,31.69,32.7,57ZM753.45,670c.91,10,6.36,19,16.35,25.35,3.63,2.72,7.27,1.82,11.81,0,3.63-2.71,5.45-6.33,5.45-10-.91-11.77-6.36-21.73-16.35-27.16-3.64-2.72-7.27-2.72-11.81,0S753.45,663.63,753.45,670Zm88.11,105.95c-.91-10-6.36-19-15.44-25.36-3.63-2.72-8.18-3.62-11.81-.9-4.54,2.71-5.45,6.33-5.45,11.77.91,11.77,6.36,19.92,16.35,26.26,3.64,2.71,7.27,2.71,11.81,0C839.75,785.88,841.56,782.25,841.56,775.92Z" transform="translate(-264.66 -513.54)" />
    <path class="cls-1" d="M569,664.54a64,64,0,0,1-31.8-8.15c-30.88-18.11-61.77-35.32-91.75-53.43-10.9-6.34-10.9-19.92,0-26.26,30.89-18.11,61.78-36.22,93.57-53.42,21.8-11.78,43.61-11.78,64.5,0,30.89,17.2,60.86,35.31,91.75,52.52,10.9,6.33,10.9,19.92,0,26.26-30.89,18.11-62.68,36.22-94.48,54.33A63.92,63.92,0,0,1,569,664.54Zm-56.32-60.67c6.36,0,11.81-1.81,17.26-4.53a11,11,0,0,0,0-19c-10.9-6.33-22.71-6.33-33.61,0a11,11,0,0,0,0,19C501.82,602.06,507.27,603.87,512.72,603.87ZM619,603c8.18,0,14.54-1.81,19.08-4.53a11,11,0,0,0,0-19q-16.35-9.51-32.7,0c-8.18,4.53-8.18,14.49,0,19A22.12,22.12,0,0,0,619,603Z" transform="translate(-264.66 -513.54)" />
    <path class="cls-1" d="M873.36,664.54c-11.81,0-22.71-2.72-31.8-8.15-30.88-18.11-60.86-35.32-91.75-53.43-10.9-6.34-10.9-19.92,0-26.26,30.89-18.11,62.68-36.22,94.48-54.33,20.89-11.77,42.69-11.77,64.5,0,30.88,17.21,60.86,35.32,91.75,52.52,10.9,6.34,10.9,19.92,0,26.26-30.89,18.11-62.69,35.32-93.57,53.43C895.16,661.82,884.26,664.54,873.36,664.54ZM817.94,575.8c-6.35,0-10.9.9-16.35,4.52-4.54,2.72-6.36,5.44-6.36,10.87a11.14,11.14,0,0,0,6.36,10c10.9,5.43,21.8,5.43,31.8-.9,8.17-4.53,7.26-14.49,0-19A24.76,24.76,0,0,0,817.94,575.8Zm108.11,0a33.36,33.36,0,0,0-16.36,3.62c-4.54,2.71-6.35,5.43-6.35,10a11.13,11.13,0,0,0,6.35,10c10.9,5.43,21.81,5.43,31.8-.91a11,11,0,0,0,0-19C937,576.7,931.5,575.8,926.05,575.8Z" transform="translate(-264.66 -513.54)" />
    <path class="cls-1" d="M875.17,767.77V713.44C876.08,689.89,887,671.78,907,660c30-18.11,60.86-35.32,91.75-52.52,11.81-6.34,22.71,0,22.71,12.68v93.27c0,9,0,19-1.82,28.07-3.63,18.11-14.53,32.59-30.88,41.65-30.89,18.11-60.87,35.32-91.75,53.43-10.9,6.33-22.71,0-22.71-12.68.9-19,.9-37.13.9-56.14Zm64.5-9.06c0-4.53-.91-8.15-5.45-10.87s-8.17-1.81-11.81.91c-10,6.34-14.53,15.39-14.53,27.17,0,4.52,1.81,8.15,6.36,10.86a9.69,9.69,0,0,0,10.9-.9C934.22,778.63,939.67,770.48,939.67,758.71Zm20.89-77c0,4.53,1.82,8.15,6.36,10.87s8.18.9,11.81-.91c9.09-6.34,14.54-15.39,14.54-27.16,0-9.06-9.09-14.49-16.35-9.06C966,660.91,961.47,670,960.56,681.74Z" transform="translate(-264.66 -513.54)" />
    <path class="cls-2" d="M747.25,892.73h35.43v-9.06H747.25v41.66H731.81V871.9h55.41c8.18,0,11.81,4.53,11.81,11.77v10a10.48,10.48,0,0,1-10.9,10.87h-7.26c7.26,7.24,13.62,13.58,20.89,21.73H795.4c-4.54,0-10.9.91-14.53-.9-4.55-1.81-7.27-6.34-10.9-10-6.36-6.34-12.72-11.78-19.08-18.11A16.05,16.05,0,0,1,747.25,892.73Z" transform="translate(-264.66 -513.54)" />
    <path class="cls-2" d="M282.14,882.77v10h39.07c8.17,0,11.81,3.62,11.81,11.77v9c0,6.34-4.55,10.87-11.81,10.87H277.6c-7.26,0-10.9-3.62-11.81-10.87h50.87v-9H277.6c-8.17,0-11.81-3.62-11.81-11.77V881.86c0-7.24,4.54-10.86,11.81-10.86h43.61c7.26,0,11.81,3.62,11.81,11.77Z" transform="translate(-264.66 -513.54)" />
    <path class="cls-2" d="M651.87,882.77H601v10h40c6.36,0,10.9,3.62,10.9,10v12.68c0,6.33-4.54,10-10.9,10H595.55a10.48,10.48,0,0,1-10.9-10.87h50.87V905.4H596.46c-8.18,0-11.81-3.62-12.72-12.67v-10a10.48,10.48,0,0,1,10.9-10.87h45.42C647.33,871,651,875.52,651.87,882.77Z" transform="translate(-264.66 -513.54)" />
    <path class="cls-2" d="M906.23,904.5v9h50c0,4.53-2.73,9.06-6.36,10-.91,0-2.73.9-4.54.9H889.88V900.88c0-5.44,5.45-8.15,10.9-8.15h39.06v-9.06h-50c-.91-6.34,3.63-11.77,9.08-11.77H946.2c5.45,0,9.08,4.53,9.08,10.87v11.77a10.47,10.47,0,0,1-10.9,10.86H909C909,904.5,908,904.5,906.23,904.5Z" transform="translate(-264.66 -513.54)" />
    <path class="cls-2" d="M996.16,925.33H973.45a10.48,10.48,0,0,1-10.9-10.87v-32.6c0-6.34,4.54-10,10.9-10h45.42c6.36,0,10,3.62,10,9.06v34.41c0,6.33-4.54,9-10.9,9C1011.6,925.33,1004.33,925.33,996.16,925.33ZM978.9,912.65h35.43V882.77H978.9Z" transform="translate(-264.66 -513.54)" />
    <path class="cls-2" d="M855.35,903.59c-3.63-6.33-6.35-11.77-10-19-4.54,8.15-9.08,16.3-12.72,23.54-2.72,4.53-4.54,9.06-7.26,12.68-.91,1.81-1.82,2.72-3.64,2.72H805.39a4.47,4.47,0,0,0,.91-2.72c9.08-16.3,18.17-31.69,26.34-48,.91-1.81,1.82-2.72,4.55-2.72h16.35a9.07,9.07,0,0,1,2.72.91c10,17.2,19.08,34.4,29.07,52.52H873.52c-6.36.9-10-.91-11.81-7.25-.9-1.81-1.81-2.72-3.63-2.72H830.83a68.08,68.08,0,0,0,6.36-10.86c0-.91,1.81-.91,2.72-.91C845.36,903.59,849.9,903.59,855.35,903.59Z" transform="translate(-264.66 -513.54)" />
    <path class="cls-2" d="M578.29,924.42H561a2.9,2.9,0,0,1-2.73-2.72c-1.81-6.33-6.36-7.24-11.81-7.24-7.26.91-14.53,0-21.8,0a67,67,0,0,0,6.36-10.87c0-.9,1.82-.9,2.73-.9h14.53c-3.63-6.34-6.36-11.77-10-18.11-.91.9-.91,1.81-1.82,2.71-6.36,11.78-11.81,22.64-18.17,34.41-.91,1.82-1.81,2.72-3.63,2.72H498.35c.9-.9.9-2.72,1.81-3.62,9.09-16.3,18.17-31.69,26.35-47.09a5,5,0,0,1,4.54-2.71H547.4a6.88,6.88,0,0,1,3.64,1.81c9.08,18.11,18.16,34.41,27.25,51.61Z" transform="translate(-264.66 -513.54)" />
    <path class="cls-2" d="M412.05,924.42c2.72-4.53,4.54-8.15,6.36-11.77,7.26-12.68,14.53-26.26,21.8-39.84.91-1.81,1.82-2.72,4.54-2.72H461.1c.91,0,2.73,0,3.64.91,9.08,17.2,19.07,34.4,29.07,52.52H482c-5.45.9-8.18-.91-10-6.34-.9-2.72-2.72-3.63-5.45-3.63H440.21a68.08,68.08,0,0,0,6.36-10.86c0-.91,1.81-.91,2.72-.91h14.54c-3.64-6.34-6.36-11.77-10-19-.91.9-.91,2.71-1.82,3.62-6.36,10.87-11.81,22.64-18.17,33.5-.91,1.81-1.82,2.72-4.54,2.72C423,924.42,418.41,924.42,412.05,924.42Z" transform="translate(-264.66 -513.54)" />
    <path class="cls-2" d="M657.32,882.77V871h66.31v11.77H698.2v41.65H682.76V882.77Z" transform="translate(-264.66 -513.54)" />
    <path class="cls-2" d="M359.36,892.73h31.79V871H406.6v52.52H391.15V903.59H359.36Z" transform="translate(-264.66 -513.54)" />
    <path class="cls-2" d="M354.82,924.42H340.28V871h14.54Z" transform="translate(-264.66 -513.54)" />
    <path class="cls-2" d="M1051.57,905.4v9.06h50c0,4.53-2.72,9.06-6.35,10-.91,0-2.73.91-4.55.91h-55.41V901.78c0-5.43,5.45-8.15,10.9-8.15h39.06v-9h-50c-.91-6.34,3.64-11.77,9.09-11.77h47.23c5.45,0,9.09,4.52,9.09,10.86v11.77a10.49,10.49,0,0,1-10.9,10.87H1054.3C1054.3,905.4,1053.39,905.4,1051.57,905.4Z" transform="translate(-264.66 -513.54)" />
    <path class="cls-2" d="M1124.25,905.4v9.06h50c0,4.53-2.73,9.06-6.36,10-.91,0-2.73.91-4.54.91h-55.42V901.78c0-5.43,5.45-8.15,10.91-8.15h39.06v-9h-50c-.9-6.34,3.64-11.77,9.09-11.77h47.24c5.45,0,9.08,4.52,9.08,10.86v11.77a10.48,10.48,0,0,1-10.9,10.87H1127C1127,905.4,1126.06,905.4,1124.25,905.4Z" transform="translate(-264.66 -513.54)" />
</svg>